<svg width="20" height="20" viewBox="0 0 20 20" fill="none" xmlns="http://www.w3.org/2000/svg">
<path fill-rule="evenodd" clip-rule="evenodd" d="M12.812 8.75012H15.6245C15.6245 5.64352 13.1061 3.12512 9.99951 3.12512L9.99951 5.86726C11.5561 5.88596 12.8123 7.15365 12.8123 8.71471C12.8123 8.72653 12.8122 8.73834 12.812 8.75012Z" fill="#DADAFF"/>
<path fill-rule="evenodd" clip-rule="evenodd" d="M7.18707 8.75012H4.37451C4.37451 5.64352 6.89291 3.12512 9.99951 3.12512L9.99951 5.86726C8.44292 5.88601 7.18685 7.15367 7.18685 8.71471C7.18685 8.72653 7.18692 8.73834 7.18707 8.75012Z" fill="#DADAFF"/>
<path fill-rule="evenodd" clip-rule="evenodd" d="M1.875 10.6252H10H18.125C18.125 15.1126 14.4873 18.7502 10 18.7502C5.51269 18.7502 1.875 15.1126 1.875 10.6252ZM9.99982 15.6251C10.6902 15.6251 11.2498 15.0655 11.2498 14.3751C11.2498 13.6847 10.6902 13.1251 9.99982 13.1251C9.30946 13.1251 8.74982 13.6847 8.74982 14.3751C8.74982 15.0655 9.30946 15.6251 9.99982 15.6251Z" fill="#F8C07C"/>
</svg>
